<svg xmlns="http://www.w3.org/2000/svg"><defs><style>.cls-1{fill:#fff;fill-rule:evenodd}</style></defs><symbol id="clip" viewBox="0 0 490 490"><path d="M329.219 91.875a7.656 7.656 0 0 0-7.656 7.656v298.595c0 42.216-34.345 76.562-76.562 76.562s-76.562-34.346-76.562-76.562V68.907c0-29.552 24.042-53.594 53.593-53.594s53.593 24.042 53.593 53.594v283.28c0 16.887-13.738 30.625-30.625 30.625s-30.625-13.739-30.625-30.625V99.531a7.656 7.656 0 1 0-15.312 0v252.657c0 25.33 20.607 45.937 45.937 45.937s45.937-20.607 45.937-45.937V68.907C290.937 30.912 260.026 0 222.031 0s-68.906 30.912-68.906 68.907v329.218C153.125 448.785 194.34 490 245 490s91.875-41.215 91.875-91.875V99.531a7.656 7.656 0 0 0-7.656-7.656z" fill="#00a0ea"/></symbol><symbol id="delivery-truck" viewBox="0 0 491.1 491.1"><path d="M401.5 322.95c-12 0-23.4 4.7-32 13.2-8.6 8.6-13.4 19.8-13.4 31.8s4.7 23.2 13.4 31.8c8.7 8.5 20 13.2 32 13.2 24.6 0 44.6-20.2 44.6-45s-20-45-44.6-45zm0 70c-13.8 0-25.4-11.4-25.4-25s11.6-25 25.4-25c13.6 0 24.6 11.2 24.6 25s-11 25-24.6 25zm11.6-219.9c-1.8-1.7-4.2-2.6-6.7-2.6h-51.3c-5.5 0-10 4.5-10 10v82c0 5.5 4.5 10 10 10h81.4c5.5 0 10-4.5 10-10v-54.9c0-2.8-1.2-5.5-3.3-7.4l-30.1-27.1zm13.4 79.4h-61.4v-62.1h37.4l24 21.6v40.5zm-269.2 70.5c-12 0-23.4 4.7-32 13.2-8.6 8.6-13.4 19.8-13.4 31.8s4.7 23.2 13.4 31.8c8.7 8.5 20 13.2 32 13.2 24.6 0 44.6-20.2 44.6-45s-20-45-44.6-45zm0 70c-13.8 0-25.4-11.4-25.4-25s11.6-25 25.4-25c13.6 0 24.6 11.2 24.6 25s-11 25-24.6 25zm-66.7-57.7H70.5v-26.6c0-5.5-4.5-10-10-10s-10 4.5-10 10v36.6c0 5.5 4.5 10 10 10h30.1c5.5 0 10-4.5 10-10s-4.5-10-10-10zm50.7-54.5c0-5.5-4.5-10-10-10H10c-5.5 0-10 4.5-10 10s4.5 10 10 10h121.3c5.5 0 10-4.4 10-10zm-111-36.1l121.3.7c5.5 0 10-4.4 10.1-9.9.1-5.6-4.4-10.1-9.9-10.1l-121.3-.7h-.1c-5.5 0-10 4.4-10 9.9-.1 5.6 4.4 10.1 9.9 10.1zm20.4-45.4H172c5.5 0 10-4.5 10-10s-4.5-10-10-10H50.7c-5.5 0-10 4.5-10 10s4.5 10 10 10zm436.7-13.5l-71.6-59.3c-1.8-1.5-4-2.3-6.4-2.3h-84.2v-36c0-5.5-4.5-10-10-10H60.5c-5.5 0-10 4.5-10 10v73.2c0 5.5 4.5 10 10 10s10-4.5 10-10v-63.2h234.8v237.1h-82c-5.5 0-10 4.5-10 10s4.5 10 10 10h122.1c5.5 0 10-4.5 10-10s-4.5-10-10-10h-20.1v-191.1h80.6l65.2 54-.7 136.9H460c-5.5 0-10 4.5-10 10s4.5 10 10 10h20.3c5.5 0 10-4.4 10-9.9l.8-151.6c-.1-3-1.4-5.9-3.7-7.8z" fill="#00a0ea"/></symbol><symbol id="file" viewBox="0 0 60 60"><g fill="#00a0ea"><path d="M37 22H12a1 1 0 0 0 0 2h25a1 1 0 0 0 0-2zM12 16h10a1 1 0 0 0 0-2H12a1 1 0 0 0 0 2zM38 31a1 1 0 0 0-1-1H12a1 1 0 0 0 0 2h25a1 1 0 0 0 1-1zM30 39a1 1 0 0 0-1-1H12a1 1 0 0 0 0 2h17a1 1 0 0 0 1-1zM12 46a1 1 0 0 0 0 2h14a1 1 0 0 0 0-2H12z"/><path d="M3 2h29v14h14v17h2V14.586L33.414 0H1v60h31v-2H3V2zm31 1.414L44.586 14H34V3.414z"/><path d="M35 36v24h24V36H35zm22 22H37V38h9v12.586l-4.293-4.293-1.414 1.414L47 54.414l6.707-6.707-1.414-1.414L48 50.586V38h9v20z"/></g></symbol><symbol id="gear" viewBox="0 0 512 512"><g fill="#00a0ea"><path d="M490.14 178.611l-42.868-8.572a160.23 160.23 0 0 0-10.867-26.228l24.252-36.378c7.165-10.748 5.737-25.176-3.398-34.312l-18.38-18.38c-9.134-9.135-23.563-10.566-34.312-3.398l-36.378 24.252a160.34 160.34 0 0 0-26.228-10.867l-8.574-42.868C330.854 9.193 319.641 0 306.724 0h-25.995c-12.916 0-24.131 9.193-26.664 21.86l-8.574 42.868a160.266 160.266 0 0 0-26.228 10.867l-36.378-24.252c-10.748-7.165-25.179-5.738-34.312 3.396l-18.381 18.382c-9.133 9.134-10.561 23.563-3.396 34.31l24.252 36.378a160.303 160.303 0 0 0-10.867 26.228l-42.868 8.573c-12.666 2.534-21.86 13.747-21.86 26.665v25.993c0 12.917 9.193 24.132 21.86 26.665l27.755 5.55a8.084 8.084 0 0 0 3.17-15.854l-27.755-5.55c-5.134-1.025-8.861-5.573-8.861-10.809v-25.993c0-5.236 3.727-9.784 8.861-10.81l47.645-9.529a8.085 8.085 0 0 0 6.2-5.75 143.994 143.994 0 0 1 13.193-31.84 8.086 8.086 0 0 0-.317-8.452l-26.955-40.433c-2.905-4.357-2.325-10.208 1.378-13.909l18.381-18.382c3.703-3.703 9.552-4.281 13.909-1.376L214.35 91.75a8.086 8.086 0 0 0 8.452.318 143.983 143.983 0 0 1 31.84-13.192 8.085 8.085 0 0 0 5.75-6.2l9.529-47.645c1.027-5.135 5.573-8.862 10.809-8.862h25.995c5.236 0 9.783 3.727 10.809 8.862l9.529 47.645a8.084 8.084 0 0 0 5.75 6.2 144.002 144.002 0 0 1 31.84 13.192 8.086 8.086 0 0 0 8.452-.318l40.434-26.955c4.357-2.905 10.207-2.327 13.909 1.378l18.38 18.38c3.704 3.704 4.282 9.553 1.378 13.91l-26.955 40.433a8.081 8.081 0 0 0-.317 8.452 144.042 144.042 0 0 1 13.193 31.84 8.087 8.087 0 0 0 6.2 5.75l47.645 9.529c5.135 1.026 8.861 5.574 8.861 10.81v25.993c0 5.236-3.727 9.784-8.861 10.81l-47.645 9.529a8.086 8.086 0 0 0-6.2 5.749 144.025 144.025 0 0 1-13.193 31.84 8.086 8.086 0 0 0 .317 8.452l26.955 40.433c2.905 4.357 2.325 10.208-1.378 13.909l-18.381 18.382c-3.703 3.703-9.551 4.281-13.909 1.376l-40.433-26.954a8.082 8.082 0 0 0-11.21 2.242 8.084 8.084 0 0 0 2.242 11.21l40.433 26.955a27.09 27.09 0 0 0 15.057 4.548c7.03 0 14.015-2.704 19.254-7.944l18.381-18.382c9.133-9.134 10.561-23.563 3.396-34.31l-24.252-36.378a160.376 160.376 0 0 0 10.867-26.228l42.868-8.572c12.666-2.534 21.86-13.748 21.86-26.665v-25.993c-.001-12.92-9.194-24.133-21.861-26.668z"/><path d="M320.674 280.253h-75.453a8.083 8.083 0 0 0-8.084 8.084 8.084 8.084 0 0 0 8.084 8.084h75.453c7.43 0 13.474 6.044 13.474 13.474v10.779c0 7.43-6.044 13.474-13.474 13.474h-75.453a8.084 8.084 0 0 0-8.084 8.084 8.084 8.084 0 0 0 8.084 8.084h75.453c7.43 0 13.474 6.044 13.474 13.474v10.779c0 7.43-6.044 13.474-13.474 13.474h-75.453a8.083 8.083 0 0 0-8.084 8.084 8.084 8.084 0 0 0 8.084 8.084h75.453c7.43 0 13.474 6.044 13.474 13.474v10.779c0 7.43-6.044 13.474-13.474 13.474h-75.453a8.083 8.083 0 0 0-8.084 8.084 8.084 8.084 0 0 0 8.084 8.084h75.453c7.43 0 13.474 6.044 13.474 13.474v10.779c0 7.43-6.044 13.474-13.474 13.474h-146.44c-7.644 0-14.838-2.97-20.256-8.36-8.553-8.51-19.843-13.198-31.79-13.198H102.4v-88.926c0-4.466-3.62-8.084-8.084-8.084s-8.084 3.618-8.084 8.084v107.789a2.698 2.698 0 0 1-2.695 2.695H59.284V385.347c0-4.466-3.62-8.084-8.084-8.084s-8.084 3.618-8.084 8.084v110.484H18.863a2.698 2.698 0 0 1-2.695-2.695V309.895a2.698 2.698 0 0 1 2.695-2.695h64.674a2.698 2.698 0 0 1 2.695 2.695v43.116c0 4.466 3.62 8.084 8.084 8.084s8.084-3.618 8.084-8.084v-24.253h19.492a29.607 29.607 0 0 0 28.121-20.268l3.009-9.032a273.213 273.213 0 0 0 14.051-86.574c0-7.43 6.044-13.474 13.474-13.474 6.479 0 12.569 2.523 17.15 7.104s7.103 10.671 7.103 17.15v86.229a8.084 8.084 0 0 0 16.168 0v-86.229c0-10.797-4.204-20.949-11.839-28.584-7.635-7.635-17.786-11.84-28.584-11.84-16.345 0-29.642 13.298-29.642 29.642 0 27.74-4.448 55.147-13.221 81.461l-3.011 9.032a13.457 13.457 0 0 1-12.782 9.213H102.4v-2.695c0-10.401-8.463-18.863-18.863-18.863H18.863C8.463 291.032 0 299.494 0 309.895v183.242C0 503.537 8.463 512 18.863 512h64.674c10.401 0 18.863-8.463 18.863-18.863v-2.695h19.787c7.644 0 14.884 3.016 20.386 8.491 8.469 8.426 19.713 13.067 31.66 13.067h146.441c16.345 0 29.642-13.298 29.642-29.642v-10.779c0-8.485-3.584-16.149-9.317-21.558 5.733-5.409 9.317-13.073 9.317-21.558v-10.779c0-8.485-3.584-16.149-9.317-21.558 5.733-5.409 9.317-13.073 9.317-21.558v-10.779c0-8.485-3.584-16.149-9.317-21.558 5.733-5.409 9.317-13.073 9.317-21.558v-10.779c0-16.343-13.297-29.641-29.642-29.641z"/><path d="M293.701 259.775c2.119 0 4.265-.163 6.423-.5 22.608-3.53 38.129-24.793 34.6-47.399-3.528-22.608-24.796-38.133-47.398-34.602-22.608 3.53-38.129 24.793-34.6 47.399 3.192 20.449 20.894 35.101 40.975 35.102zm-3.881-66.527c13.8-2.143 26.777 7.321 28.931 21.119 2.154 13.799-7.32 26.777-21.118 28.932-13.798 2.154-26.777-7.321-28.931-21.119-2.154-13.799 7.32-26.777 21.118-28.932zM366.829 296.421a8.06 8.06 0 0 0 5.841-2.494c23.782-24.85 34.382-58.57 29.084-92.514-2.692-17.244-9.208-33.113-19.371-47.163a8.086 8.086 0 0 0-13.102 9.476c8.652 11.964 14.203 25.483 16.497 40.18 4.514 28.925-4.521 57.662-24.79 78.843a8.084 8.084 0 0 0 5.841 13.672zM361.144 142.298a8.082 8.082 0 0 0-1.589-11.321c-23.838-17.972-53.206-25.34-82.691-20.73-33.834 5.28-62.67 25.561-79.115 55.644a8.085 8.085 0 0 0 14.186 7.757c14.017-25.64 38.591-42.926 67.422-47.425 25.126-3.925 50.151 2.352 70.464 17.666 3.567 2.685 8.636 1.975 11.323-1.591z"/></g></symbol><symbol id="guarantee" viewBox="0 0 368.029 368.029"><path d="M363.568 204.926c-2.056-7.448-3.992-14.488-3.992-20.912 0-6.424 1.936-13.464 3.992-20.912 3.272-11.856 6.648-24.12 2.608-36.04-4.192-12.4-14.64-20.504-24.744-28.328-6.056-4.696-11.776-9.128-15.488-14.008-3.776-4.976-6.448-11.616-9.264-18.648-4.648-11.552-9.448-23.504-20.2-31.008-10.576-7.392-23.776-8.104-36.52-8.784-7.952-.424-15.472-.832-21.768-2.792-5.888-1.832-11.984-5.632-18.432-9.656C209.384 7.358 197.616.014 184.008.014c-13.608 0-25.376 7.344-35.752 13.832-6.448 4.024-12.528 7.832-18.424 9.656-6.304 1.96-13.824 2.368-21.776 2.792-12.752.688-25.936 1.392-36.52 8.784-10.752 7.504-15.552 19.448-20.2 31-2.832 7.032-5.504 13.68-9.28 18.656-3.712 4.896-9.432 9.328-15.488 14.032-10.096 7.832-20.528 15.92-24.72 28.304-4.04 11.928-.664 24.184 2.6 36.048 2.056 7.448 3.992 14.48 3.992 20.904s-1.936 13.464-3.992 20.912c-3.264 11.856-6.64 24.12-2.6 36.056 4.192 12.384 14.632 20.488 24.728 28.312 6.056 4.688 11.776 9.128 15.48 14.008 3.784 4.976 6.456 11.616 9.28 18.656 4.648 11.552 9.456 23.504 20.216 31.024 10.568 7.376 23.76 8.08 36.504 8.76 7.952.424 15.472.832 21.768 2.792 5.888 1.832 11.976 5.632 18.416 9.648 10.384 6.472 22.152 13.824 35.768 13.824s25.392-7.352 35.784-13.832c6.44-4.016 12.52-7.816 18.416-9.648 6.296-1.96 13.816-2.368 21.768-2.792 12.752-.68 25.936-1.384 36.504-8.76 10.776-7.52 15.576-19.488 20.224-31.048 2.824-7.024 5.488-13.664 9.248-18.624 3.712-4.88 9.432-9.32 15.488-14.008 10.104-7.832 20.544-15.928 24.744-28.32 4.04-11.936.656-24.192-2.616-36.056zm-12.545 30.928c-2.648 7.824-10.784 14.128-19.392 20.8-6.6 5.12-13.432 10.416-18.424 16.976-5.064 6.688-8.264 14.64-11.36 22.344-3.944 9.824-7.672 19.096-14.528 23.88-6.832 4.768-17.208 5.32-28.2 5.904-8.584.456-17.472.928-25.68 3.488-7.848 2.456-15.112 6.976-22.128 11.36-9.4 5.872-18.272 11.408-27.304 11.408s-17.896-5.536-27.296-11.408c-7.008-4.376-14.264-8.904-22.12-11.36-8.208-2.552-17.096-3.032-25.68-3.488-10.992-.584-21.376-1.144-28.2-5.904-6.848-4.784-10.584-14.056-14.528-23.872-3.096-7.704-6.304-15.664-11.376-22.352-4.984-6.56-11.816-11.856-18.424-16.984-8.6-6.672-16.728-12.968-19.376-20.792-2.472-7.288.128-16.712 2.872-26.68 2.24-8.152 4.56-16.568 4.56-25.168 0-8.6-2.32-17.008-4.56-25.16-2.752-9.968-5.344-19.384-2.872-26.672 2.648-7.824 10.768-14.12 19.368-20.792 6.608-5.128 13.448-10.432 18.424-17 5.088-6.688 8.288-14.656 11.392-22.36 3.936-9.816 7.664-19.08 14.504-23.848 6.832-4.776 17.224-5.328 28.224-5.912 8.576-.464 17.464-.936 25.664-3.496 7.864-2.448 15.128-6.984 22.152-11.368 9.384-5.848 18.248-11.384 27.272-11.384s17.896 5.536 27.288 11.4c7.024 4.392 14.28 8.92 22.144 11.368 8.2 2.552 17.08 3.024 25.664 3.488 11 .584 21.384 1.152 28.216 5.92 6.848 4.784 10.576 14.048 14.512 23.848 3.104 7.712 6.296 15.672 11.384 22.36 4.984 6.56 11.816 11.856 18.416 16.976 8.608 6.68 16.744 12.984 19.392 20.824 2.472 7.272-.136 16.688-2.88 26.656-2.248 8.152-4.568 16.568-4.568 25.168s2.312 17.016 4.568 25.16c2.753 9.968 5.352 19.384 2.88 26.672z"/><path d="M184.008 64.014c-66.168 0-120 53.832-120 120s53.832 120 120 120 120-53.832 120-120-53.832-120-120-120zm0 224c-57.344 0-104-46.656-104-104s46.656-104 104-104c29.576 0 56.24 12.472 75.2 32.36l-76.24 107.288-41.304-41.304c-3.128-3.128-8.184-3.128-11.312 0s-3.128 8.184 0 11.312l48 48a7.973 7.973 0 0 0 5.656 2.344c.216 0 .448-.008.672-.032a7.971 7.971 0 0 0 5.848-3.336l79.176-111.424c11.52 16.736 18.304 36.976 18.304 58.792 0 57.344-46.656 104-104 104z"/></symbol><symbol id="hand-shake" viewBox="0 0 512 512"><path d="M404.267 315.41c-10.048-20.949-45.995-50.027-80.725-78.123-19.371-15.659-37.675-30.464-49.344-42.133-2.923-2.944-7.296-3.883-11.157-2.496-7.189 2.603-11.627 4.608-15.125 6.165-5.333 2.389-7.125 3.2-14.315 3.925a10.663 10.663 0 0 0-7.808 4.672c-15.083 22.549-30.699 20.629-41.131 17.131-3.328-1.109-3.925-2.539-4.245-3.904-2.24-9.365 9.003-31.168 23.573-45.739 34.667-34.688 52.544-43.371 90.304-26.496 42.837 19.157 85.76 34.155 86.187 34.304a10.654 10.654 0 0 0 13.589-6.571c1.92-5.568-1.003-11.648-6.571-13.589-.427-.149-42.496-14.848-84.48-33.643-48.917-21.867-75.755-7.467-114.091 30.891-14.592 14.592-34.411 44.117-29.291 65.771 2.197 9.216 8.683 16.043 18.325 19.221 24.171 7.979 46.229.341 62.656-21.461 6.784-1.045 10.475-2.581 16.021-5.077a209.95 209.95 0 0 1 7.467-3.2c12.203 11.456 28.672 24.789 46.016 38.805 31.36 25.365 66.923 54.123 74.923 70.763 3.947 8.213-.299 13.568-3.179 16.021-4.224 3.627-10.005 4.779-13.141 2.581-3.456-2.368-7.957-2.517-11.52-.384a10.66 10.66 0 0 0-5.141 10.304c.725 6.784-5.483 10.667-8.171 12.011-6.827 3.456-13.952 2.859-16.619.384-2.987-2.773-7.275-3.584-11.072-2.176-3.797 1.429-6.443 4.928-6.827 8.981-.64 6.997-5.824 13.717-12.587 16.341-3.264 1.237-8 1.984-12.245-1.899a10.791 10.791 0 0 0-9.749-2.475 10.65 10.65 0 0 0-7.488 6.72c-.405 1.067-1.323 3.627-11.307 3.627-7.104 0-19.883-4.8-26.133-8.939-7.488-4.928-54.443-39.957-94.997-73.92-5.696-4.8-15.552-15.083-24.256-24.171-7.723-8.064-14.784-15.381-18.411-18.453-4.544-3.84-11.264-3.264-15.04 1.259-3.797 4.501-3.243 11.243 1.259 15.04 3.307 2.795 9.707 9.557 16.768 16.917 9.515 9.941 19.349 20.224 25.963 25.771 39.723 33.259 87.467 69.163 96.981 75.413 7.851 5.163 24.768 12.416 37.867 12.416 10.517 0 18.603-2.411 24.213-7.125 7.509 2.923 16.043 2.944 24.256-.256 9.707-3.755 17.685-11.328 22.208-20.501 8.405 1.792 18.027.533 26.773-3.861 8.555-4.309 14.741-10.901 17.813-18.603 8.491.448 17.237-2.56 24.469-8.768 12.247-10.474 15.617-26.772 8.535-41.471z" fill="#FFF"/><path d="M213.333 138.663h-96c-5.888 0-10.667 4.779-10.667 10.667s4.779 10.667 10.667 10.667h96c5.888 0 10.667-4.779 10.667-10.667s-4.779-10.667-10.667-10.667zM435.52 292.711c-3.307-4.885-9.92-6.229-14.805-2.901l-31.189 20.949c-4.885 3.285-6.187 9.92-2.901 14.805a10.717 10.717 0 0 0 8.875 4.715c2.027 0 4.096-.576 5.931-1.813l31.189-20.949c4.884-3.286 6.185-9.92 2.9-14.806zM369.301 343.613c-7.637-6.016-41.792-40.981-62.912-62.997-4.075-4.267-10.837-4.416-15.083-.32-4.267 4.075-4.395 10.837-.32 15.083 5.483 5.717 53.845 56.128 65.088 65.003a10.623 10.623 0 0 0 6.592 2.283c3.136 0 6.272-1.408 8.405-4.075 3.649-4.609 2.86-11.329-1.77-14.977zM326.677 365.01c-12.779-10.219-44.885-44.331-52.139-52.224-4.011-4.352-10.731-4.608-15.083-.64-4.331 3.989-4.629 10.752-.64 15.083.384.405 38.699 41.771 54.528 54.443a10.72 10.72 0 0 0 6.656 2.325c3.115 0 6.229-1.387 8.341-3.989 3.671-4.609 2.924-11.329-1.663-14.998zM284.224 386.493c-15.211-12.821-46.336-45.952-52.416-52.459-4.032-4.309-10.795-4.544-15.083-.512-4.309 4.032-4.523 10.773-.512 15.083 8.747 9.365 38.528 40.939 54.251 54.208a10.638 10.638 0 0 0 6.869 2.517c3.029 0 6.059-1.301 8.171-3.797 3.797-4.523 3.221-11.243-1.28-15.04z" fill="#FFF"/><path d="M124.672 120.253C106.389 102.93 33.28 97.319 11.307 96.018c-3.029-.149-5.824.853-7.957 2.88A10.662 10.662 0 0 0 0 106.663v192c0 5.888 4.779 10.667 10.667 10.667h64c4.608 0 8.704-2.965 10.133-7.36 1.557-4.779 38.315-117.589 43.157-173.056.278-3.243-.917-6.443-3.285-8.661zM66.88 287.997H21.333V118.098c34.283 2.709 71.275 8.597 84.715 15.125-5.653 46.72-31.232 129.728-39.168 154.774zM501.333 117.33c-83.755 0-130.219 21.44-132.16 22.336-2.773 1.301-4.843 3.712-5.696 6.635s-.427 6.059 1.173 8.661c13.184 21.227 54.464 139.115 62.4 167.872a10.665 10.665 0 0 0 10.283 7.829h64c5.888 0 10.667-4.779 10.667-10.667v-192a10.657 10.657 0 0 0-10.667-10.666zm-10.666 192h-45.355c-10.112-32.939-39.979-118.827-56.64-154.325 16.277-5.525 51.243-15.019 101.995-16.213V309.33z" fill="#FFF"/></symbol><symbol id="icon-menu-cross" viewBox="0 0 23.867 23.867"><path fill="#FFF" d="M15.087 11.933l8.56-8.559a.75.75 0 0 0 0-1.061L21.554.22a.747.747 0 0 0-1.06 0l-8.561 8.56L3.373.22a.771.771 0 0 0-1.061 0L.22 2.313a.75.75 0 0 0 0 1.061l8.56 8.559-8.56 8.559a.751.751 0 0 0 0 1.062l2.093 2.094a.744.744 0 0 0 1.06 0l8.561-8.56 8.56 8.56a.746.746 0 0 0 1.06 0l2.093-2.094a.751.751 0 0 0 0-1.062l-8.56-8.559z"/></symbol><symbol id="icon-menu-ham" viewBox="0 0 30 19"><path class="cls-1" d="M0 0h30v3H0V0zm0 8h30v3H0V8zm0 8h30v3H0v-3z"/></symbol><symbol id="like" viewBox="0 0 478.2 478.2"><path d="M457.575 325.1c9.8-12.5 14.5-25.9 13.9-39.7-.6-15.2-7.4-27.1-13-34.4 6.5-16.2 9-41.7-12.7-61.5-15.9-14.5-42.9-21-80.3-19.2-26.3 1.2-48.3 6.1-49.2 6.3h-.1c-5 .9-10.3 2-15.7 3.2-.4-6.4.7-22.3 12.5-58.1 14-42.6 13.2-75.2-2.6-97-16.6-22.9-43.1-24.7-50.9-24.7-7.5 0-14.4 3.1-19.3 8.8-11.1 12.9-9.8 36.7-8.4 47.7-13.2 35.4-50.2 122.2-81.5 146.3-.6.4-1.1.9-1.6 1.4-9.2 9.7-15.4 20.2-19.6 29.4-5.9-3.2-12.6-5-19.8-5h-61c-23 0-41.6 18.7-41.6 41.6v162.5c0 23 18.7 41.6 41.6 41.6h61c8.9 0 17.2-2.8 24-7.6l23.5 2.8c3.6.5 67.6 8.6 133.3 7.3 11.9.9 23.1 1.4 33.5 1.4 17.9 0 33.5-1.4 46.5-4.2 30.6-6.5 51.5-19.5 62.1-38.6 8.1-14.6 8.1-29.1 6.8-38.3 19.9-18 23.4-37.9 22.7-51.9-.4-8.1-2.2-15-4.1-20.1zm-409.3 122.2c-8.1 0-14.6-6.6-14.6-14.6V270.1c0-8.1 6.6-14.6 14.6-14.6h61c8.1 0 14.6 6.6 14.6 14.6v162.5c0 8.1-6.6 14.6-14.6 14.6h-61v.1zm383.7-133.9c-4.2 4.4-5 11.1-1.8 16.3 0 .1 4.1 7.1 4.6 16.7.7 13.1-5.6 24.7-18.8 34.6-4.7 3.6-6.6 9.8-4.6 15.4 0 .1 4.3 13.3-2.7 25.8-6.7 12-21.6 20.6-44.2 25.4-18.1 3.9-42.7 4.6-72.9 2.2h-1.4c-64.3 1.4-129.3-7-130-7.1h-.1l-10.1-1.2c.6-2.8.9-5.8.9-8.8V270.1c0-4.3-.7-8.5-1.9-12.4 1.8-6.7 6.8-21.6 18.6-34.3 44.9-35.6 88.8-155.7 90.7-160.9.8-2.1 1-4.4.6-6.7-1.7-11.2-1.1-24.9 1.3-29 5.3.1 19.6 1.6 28.2 13.5 10.2 14.1 9.8 39.3-1.2 72.7-16.8 50.9-18.2 77.7-4.9 89.5 6.6 5.9 15.4 6.2 21.8 3.9 6.1-1.4 11.9-2.6 17.4-3.5.4-.1.9-.2 1.3-.3 30.7-6.7 85.7-10.8 104.8 6.6 16.2 14.8 4.7 34.4 3.4 36.5-3.7 5.6-2.6 12.9 2.4 17.4.1.1 10.6 10 11.1 23.3.4 8.9-3.8 18-12.5 27z" fill="#0067da"/></symbol><symbol id="magnifying-glass" viewBox="0 0 451 451"><path d="M447.05 428l-109.6-109.6c29.4-33.8 47.2-77.9 47.2-126.1C384.65 86.2 298.35 0 192.35 0 86.25 0 .05 86.3.05 192.3s86.3 192.3 192.3 192.3c48.2 0 92.3-17.8 126.1-47.2L428.05 447c2.6 2.6 6.1 4 9.5 4s6.9-1.3 9.5-4c5.2-5.2 5.2-13.8 0-19zM26.95 192.3c0-91.2 74.2-165.3 165.3-165.3 91.2 0 165.3 74.2 165.3 165.3s-74.1 165.4-165.3 165.4c-91.1 0-165.3-74.2-165.3-165.4z" fill="#0067da"/></symbol><symbol id="next" viewBox="0 0 477.175 477.175"><path d="M360.731 229.075l-225.1-225.1c-5.3-5.3-13.8-5.3-19.1 0s-5.3 13.8 0 19.1l215.5 215.5-215.5 215.5c-5.3 5.3-5.3 13.8 0 19.1 2.6 2.6 6.1 4 9.5 4 3.4 0 6.9-1.3 9.5-4l225.1-225.1c5.3-5.2 5.3-13.8.1-19z" fill="#0067da"/></symbol><symbol id="package" viewBox="0 0 512 512"><path d="M155.999 370.002c-5.52 0-10 4.48-10 10s4.48 10 10 10 10-4.48 10-10-4.48-10-10-10z" fill="#0067da"/><path d="M450.143 190.001l58.929-58.929a10 10 0 0 0-4.122-16.626l-143.5-44.29C348.514 28.575 310.066.002 265.999.002c-40.964 0-77.6 24.965-92.763 62.625L7.022 114.455a10 10 0 0 0-4.094 16.618l60.479 60.479-38.144 63.575a10.001 10.001 0 0 0 5.413 14.632l55.323 18.44v153.802a10 10 0 0 0 6.489 9.363c33.827 12.684 159.512 59.822 160.187 60.061a9.962 9.962 0 0 0 6.398.089c.029-.01.059-.016.088-.026l180-60a10.001 10.001 0 0 0 6.838-9.487v-157.92l58.998-18.54a10 10 0 0 0 4.074-16.611l-58.928-58.929zm-84.144-89.999c0-2.541-.107-5.076-.298-7.603l117.494 36.265-49.897 49.896-81.528-27.173c9.232-15.431 14.229-33.237 14.229-51.385zM190.326 73.974c11.101-32.282 41.512-53.972 75.673-53.972 36.801 0 68.719 24.892 77.618 60.532a80.446 80.446 0 0 1 2.382 19.468c0 18.574-6.164 35.983-17.828 50.352-15.277 18.842-37.938 29.648-62.172 29.648-26.196 0-50.767-12.858-65.733-34.404-9.333-13.406-14.267-29.174-14.267-45.596 0-8.931 1.455-17.688 4.327-26.028zM28.764 128.625l138.3-43.124a100.825 100.825 0 0 0-1.065 14.5c0 16.101 3.814 31.696 11.084 45.767L78.7 178.56l-49.936-49.935zm20.063 126.102l31.62-52.702 160.563 53.521-31.619 52.702-160.564-53.521zm197.172 232.845l-140-52.5V294.866c110.15 36.522 104.771 35.407 107.838 35.407 3.438 0 6.73-1.779 8.577-4.856l23.585-39.311v201.466zm10-248.111l-148.376-49.458 80.794-26.93c18.91 23.247 47.377 36.929 77.582 36.929 27.942 0 54.203-11.499 73.092-31.759l65.284 21.759-148.376 49.459zm170 195.333l-160 53.333v-209.62l35.451 44.31a10.002 10.002 0 0 0 10.807 3.293l113.742-35.743v144.427zM312.791 304.979l-40.024-50.026 160.531-53.51 49.964 49.964-170.471 53.572z" fill="#0067da"/><path d="M219.511 392.198l-22.24-8.34c-5.171-1.938-10.935.681-12.875 5.852-1.939 5.172.681 10.936 5.852 12.875l22.24 8.34c5.182 1.942 10.939-.69 12.875-5.852 1.939-5.171-.681-10.936-5.852-12.875zM219.51 434.918l-60-22.5c-5.171-1.939-10.935.681-12.875 5.852-1.94 5.171.681 10.936 5.852 12.875l60 22.5a9.975 9.975 0 0 0 3.51.64c4.049 0 7.859-2.477 9.365-6.492 1.94-5.172-.68-10.936-5.852-12.875zM323.071 62.93c-3.905-3.906-10.237-3.905-14.143 0l-52.929 52.93-12.929-12.929c-3.905-3.905-10.237-3.905-14.143 0-3.906 3.905-3.905 10.237 0 14.143l20.001 19.999c3.905 3.905 10.237 3.905 14.143 0l60-60c3.905-3.905 3.905-10.237 0-14.143z" fill="#0067da"/></symbol><symbol id="pdf" viewBox="0 0 512 512"><path d="M494.479 138.557L364.04 3.018A9.853 9.853 0 0 0 356.945 0h-194.41c-21.757 0-39.458 17.694-39.458 39.442v137.789H44.29c-16.278 0-29.521 13.239-29.521 29.513v147.744C14.769 370.761 28.012 384 44.29 384h78.787v88.627c0 21.71 17.701 39.373 39.458 39.373h295.238c21.757 0 39.458-17.653 39.458-39.351V145.385a9.85 9.85 0 0 0-2.752-6.828zM359.385 26.581l107.079 111.265H359.385V26.581zM44.29 364.308c-5.42 0-9.828-4.405-9.828-9.82V206.744c0-5.415 4.409-9.821 9.828-9.821h265.882c5.42 0 9.828 4.406 9.828 9.821v147.744c0 5.415-4.409 9.82-9.828 9.82H44.29zm433.248 108.341c0 10.84-8.867 19.659-19.766 19.659H162.535c-10.899 0-19.766-8.828-19.766-19.68V384h167.403c16.278 0 29.521-13.239 29.521-29.512V206.744c0-16.274-13.243-29.513-29.521-29.513H142.769V39.442c0-10.891 8.867-19.75 19.766-19.75h177.157v128c0 5.438 4.409 9.846 9.846 9.846h128v315.111z" fill="#00a0ea"/><path d="M132.481 249.894c-3.269-4.25-7.327-7.01-12.173-8.279-3.154-.846-9.923-1.269-20.308-1.269H72.596v84.577h17.077v-31.904h11.135c7.731 0 13.635-.404 17.712-1.212 3-.654 5.952-1.99 8.856-4.01 2.904-2.019 5.298-4.798 7.183-8.336 1.885-3.538 2.827-7.904 2.827-13.096-.001-6.731-1.636-12.221-4.905-16.471zm-14.625 23.279c-1.288 1.885-3.067 3.269-5.337 4.154s-6.769 1.327-13.5 1.327h-9.346v-24h8.25c6.154 0 10.25.192 12.288.577 2.769.5 5.058 1.75 6.865 3.75 1.808 2 2.712 4.539 2.712 7.615.001 2.5-.644 4.692-1.932 6.577zM219.481 263.452c-1.846-5.404-4.539-9.971-8.077-13.702s-7.789-6.327-12.75-7.789c-3.692-1.077-9.058-1.615-16.096-1.615h-31.212v84.577h32.135c6.308 0 11.346-.596 15.115-1.789 5.039-1.615 9.039-3.865 12-6.75 3.923-3.808 6.942-8.788 9.058-14.942 1.731-5.039 2.596-11.039 2.596-18 0-7.923-.923-14.586-2.769-19.99zm-16.616 34.731c-1.154 3.789-2.644 6.51-4.471 8.163-1.827 1.654-4.125 2.827-6.894 3.519-2.115.539-5.558.808-10.327.808h-12.75v-56.019h7.673c6.961 0 11.635.269 14.019.808 3.192.692 5.827 2.019 7.904 3.981 2.077 1.962 3.692 4.692 4.846 8.192s1.731 8.519 1.731 15.058c0 6.538-.577 11.701-1.731 15.49zM294.827 254.654v-14.308h-57.981v84.577h17.077v-35.942h35.308v-14.308h-35.308v-20.019z" fill="#00a0ea"/></symbol><symbol id="play-button" viewBox="0 0 335 335"><path fill="#00a0ea" d="M22.5 0v335l290-167.5z"/></symbol><symbol id="portfolio" viewBox="0 -31 512 512"><path d="M497.094 60.004c-.031 0-.063-.004-.094-.004H361V45c0-24.813-20.188-45-45-45H196c-24.813 0-45 20.188-45 45v15H15C6.648 60 0 66.844 0 75v330c0 24.813 20.188 45 45 45h422c24.813 0 45-20.188 45-45V75.316v-.058c-.574-9.852-6.633-15.2-14.906-15.254zM181 45c0-8.27 6.73-15 15-15h120c8.27 0 15 6.73 15 15v15H181zm295.188 45l-46.583 139.742A14.975 14.975 0 0 1 415.38 240H331v-15c0-8.285-6.715-15-15-15H196c-8.285 0-15 6.715-15 15v15H96.621a14.975 14.975 0 0 1-14.226-10.258L35.813 90zM301 240v30h-90v-30zm181 165c0 8.27-6.73 15-15 15H45c-8.27 0-15-6.73-15-15V167.434l23.934 71.796A44.935 44.935 0 0 0 96.62 270H181v15c0 8.285 6.715 15 15 15h120c8.285 0 15-6.715 15-15v-15h84.379a44.935 44.935 0 0 0 42.687-30.77L482 167.434zm0 0" fill="#FFF"/></symbol><symbol id="right-quote-sign" viewBox="0 0 975.036 975.036"><g fill="#00a0ea"><path d="M925.036 57.197h-304c-27.6 0-50 22.4-50 50v304c0 27.601 22.4 50 50 50h145.5c-1.9 79.601-20.4 143.3-55.4 191.2-27.6 37.8-69.399 69.1-125.3 93.8-25.7 11.3-36.8 41.7-24.8 67.101l36 76c11.6 24.399 40.3 35.1 65.1 24.399 66.2-28.6 122.101-64.8 167.7-108.8 55.601-53.7 93.7-114.3 114.3-181.9 20.601-67.6 30.9-159.8 30.9-276.8v-239c0-27.599-22.401-50-50-50zM106.036 913.497c65.4-28.5 121-64.699 166.9-108.6 56.1-53.7 94.4-114.1 115-181.2 20.6-67.1 30.899-159.6 30.899-277.5v-239c0-27.6-22.399-50-50-50h-304c-27.6 0-50 22.4-50 50v304c0 27.601 22.4 50 50 50h145.5c-1.9 79.601-20.4 143.3-55.4 191.2-27.6 37.8-69.4 69.1-125.3 93.8-25.7 11.3-36.8 41.7-24.8 67.101l35.9 75.8c11.601 24.399 40.501 35.2 65.301 24.399z"/></g></symbol><symbol id="sale" viewBox="0 -8 334.00076 334"><path d="M33.066 202.691l-2.5 50.18a7.001 7.001 0 0 0 5.164 7.106l48.5 13.125 27.47 42.07a7.001 7.001 0 0 0 8.355 2.715L167 300l46.95 17.883a7 7 0 0 0 8.35-2.711l27.47-42.067 48.5-13.125a6.997 6.997 0 0 0 5.164-7.105l-2.5-50.18 31.52-39.125a7.01 7.01 0 0 0 0-8.785l-31.52-39.125 2.5-50.18a6.997 6.997 0 0 0-5.164-7.105l-48.5-13.125L222.3 3.172A7 7 0 0 0 213.946.46L167 18.348 120.05.465a7.004 7.004 0 0 0-8.35 2.707l-27.47 42.07-48.5 13.125a6.997 6.997 0 0 0-5.164 7.106l2.5 50.18L1.551 154.78a7 7 0 0 0 0 8.785zm12.579-80.328a6.988 6.988 0 0 0 1.539-4.738l-2.356-47.21 45.629-12.353a6.991 6.991 0 0 0 4.031-2.93l25.848-39.577 44.172 16.828c1.605.61 3.379.61 4.984 0l44.172-16.828 25.848 39.578a6.991 6.991 0 0 0 4.031 2.93l45.625 12.351-2.352 47.211a6.988 6.988 0 0 0 1.54 4.738l29.656 36.809-29.657 36.812a6.988 6.988 0 0 0-1.539 4.739l2.352 47.21-45.625 12.352a6.991 6.991 0 0 0-4.031 2.93l-25.848 39.578-44.172-16.828a7.023 7.023 0 0 0-4.984 0l-44.172 16.828-25.848-39.578a6.991 6.991 0 0 0-4.031-2.93l-45.629-12.351 2.356-47.211a6.988 6.988 0 0 0-1.54-4.739l-29.656-36.812zm0 0" fill="#006DF0"/><path d="M128.3 145.063c16.012 0 28.99-12.977 28.99-28.989.003-16.011-12.977-28.992-28.99-28.992s-28.988 12.98-28.988 28.992c.016 16 12.985 28.969 28.989 28.989zm0-43.981c8.278 0 14.99 6.711 14.99 14.992.003 8.278-6.708 14.989-14.99 14.989-8.277 0-14.988-6.711-14.988-14.989.008-8.273 6.715-14.98 14.989-14.992zm0 0M174.953 204.031c0 16.012 12.98 28.992 28.988 28.992 16.012 0 28.993-12.98 28.993-28.992s-12.98-28.988-28.993-28.988c-16.004.02-28.968 12.988-28.988 28.988zm43.98 0c0 8.281-6.71 14.992-14.992 14.992-8.277 0-14.988-6.71-14.988-14.992 0-8.277 6.711-14.988 14.988-14.988 8.278.008 14.98 6.715 14.993 14.988zm0 0M113.7 240.902a6.999 6.999 0 0 0 9.687-2.039l98.953-151.73a6.994 6.994 0 0 0 .39-7 7.002 7.002 0 0 0-12.117-.648l-98.953 151.73a7 7 0 0 0 2.04 9.687zm0 0" fill="#006DF0"/></symbol><symbol id="shield" viewBox="0 0 512 512"><path d="M421.4 81.2C336.1 81.2 256 11.5 256 11.5S175.9 80.2 90.6 80.2c-27.7 0-46.8-5.2-46.8-5.2v136.3c0 54.1 16.6 107.2 48.9 152.9C125 408.9 178 469.3 251.9 499.4l4.2 1 4.2-2.1c72.8-29.1 126.9-89.5 159.2-135.2 32.3-44.7 48.9-97.8 48.9-152.9V76c-.2 0-23.5 5.2-47 5.2zm2.1 20.8c9.4 0 17.7-1 26-2.1v110.3c0 12.3-.9 24.4-2.7 36.4H265.4V44.9c27.2 19.9 88.5 57.1 158.1 57.1zM64.6 99.9c8.3 1 16.6 1 26 2.1 67.9 0 126.6-34.5 155-54.8v199.4H67.3c-1.8-12-2.7-24.1-2.7-36.4V99.9zm45.8 251.8c-18.9-26-32-54.9-39.3-85.3h174.5v207c-60.9-29.4-106.8-81.5-135.2-121.7zm293.3 0c-28.9 40.9-75.9 94.1-138.4 123.2V266.4H443c-7.2 30.4-20.4 59.3-39.3 85.3z" fill="#006DF0"/></symbol><symbol id="support" viewBox="0 0 422.692 422.692"><path d="M271.786 289.626v-7.36c2.08-1.68 4.08-3.52 6-5.44a109.36 109.36 0 0 0 27.68-60.96 53.762 53.762 0 0 0 34.72-20.64c11.6-16.4 12.64-40 2.96-69.6a8.002 8.002 0 0 0-3.2-4.16l-4.4-2.96a108.478 108.478 0 0 0-25.92-73.04c-21.52-24.24-54.56-36.48-98.32-36.64-43.68 0-76.8 12.4-98.32 36.32a108.478 108.478 0 0 0-25.92 73.04l-4.4 2.96a8.002 8.002 0 0 0-3.2 4.16c-9.68 29.76-8.64 53.2 2.96 69.6a53.918 53.918 0 0 0 34.72 20.88 109.44 109.44 0 0 0 27.76 61.04 78.037 78.037 0 0 0 6 5.44v7.36c-30.64 5.92-152.96 34.64-150.88 116.24a8 8 0 0 0 8 8h406.64a8 8 0 0 0 8-8c2.08-81.6-120.24-110.32-150.88-116.24zm-159.44-91.68a34.72 34.72 0 0 1-16.96-12.4l.4.08c-8-11.68-8.72-29.36-1.6-52.72l5.84-3.92a8 8 0 0 0 3.52-7.44 94.558 94.558 0 0 1 21.76-65.84c18.08-20.48 47.12-30.72 86-30.88 38.88-.16 67.92 10.4 86.32 30.88a94.558 94.558 0 0 1 21.76 65.84 8 8 0 0 0 3.52 7.44l5.84 3.92c7.12 23.28 6.64 41.04-1.6 52.72a34.886 34.886 0 0 1-17.04 12.4 53.277 53.277 0 0 0 13.04-40 37.441 37.441 0 0 0-12.88-22.4c-3.44-80-59.52-88.96-83.68-88.96-5.114-.015-10.222.36-15.28 1.12a100.705 100.705 0 0 0-15.28-1.12c-24 0-80 8.8-83.68 88.96a37.44 37.44 0 0 0-13.04 22.32 53.2 53.2 0 0 0 13.04 40zm182-65.6a164.805 164.805 0 0 1-95.6-24 8 8 0 0 0-10.4 1.04c-16 17.2-45.2 21.2-59.28 22.08 4.32-56.56 38.56-68.88 67.36-68.88a77.331 77.331 0 0 1 13.68 1.12 7.982 7.982 0 0 0 3.2 0 77.71 77.71 0 0 1 13.68-1.12c28.56 0 62.96 12.64 66.96 69.68l.4.08zm-162.48 67.12l.32.08a7.997 7.997 0 0 0-2-5.36c-10.96-12.56-16-24-14.64-33.44a21.2 21.2 0 0 1 7.28-13.52c10.56 0 48-2 72-22.72a180.395 180.395 0 0 0 88.8 24c5.36 0 10.8 0 16.48-.88a21.118 21.118 0 0 1 7.2 13.12c1.36 9.28-3.68 20.88-14.64 33.44a7.997 7.997 0 0 0-2 5.36v4.16l-46.56 24.96c-9.24-8.748-23.823-8.349-32.571.891-8.748 9.24-8.349 23.823.891 32.571 9.24 8.748 23.823 8.349 32.571-.891a23.039 23.039 0 0 0 6.309-15.851c.036-.72.036-1.44 0-2.16l36.72-19.68a88.007 88.007 0 0 1-21.44 42.24 71.28 71.28 0 0 1-53.04 19.84h-4a71.44 71.44 0 0 1-52.96-19.76c-25.28-25.2-24.72-66-24.72-66.4zm103.44 45.92a7.12 7.12 0 1 1-14.24 0 7.12 7.12 0 0 1 14.24 0zm-32 152H16.266c6.32-60.08 104-85.2 134.56-91.68v14.32c0 18.16 22.08 32 52.48 34.32v43.04zm-36.48-77.36V292.426a96.721 96.721 0 0 0 42.48 8.96h4a96.721 96.721 0 0 0 42.48-8.96v27.6c0 7.6-17.36 18.56-44.48 18.56s-44.48-10.96-44.48-18.56zm52.48 77.6v-43.36c30.4-2.08 52.48-16 52.48-34.32v-14c30.8 6.4 128 31.52 134.56 91.68h-187.04z" fill="#FFF"/></symbol><symbol id="tick" viewBox="0 0 511.999 511.999"><path d="M506.231 75.508c-7.689-7.69-20.158-7.69-27.849 0l-319.21 319.211L33.617 269.163c-7.689-7.691-20.158-7.691-27.849 0-7.69 7.69-7.69 20.158 0 27.849l139.481 139.481c7.687 7.687 20.16 7.689 27.849 0l333.133-333.136c7.69-7.691 7.69-20.159 0-27.849z" fill="#00a0ea"/></symbol><symbol id="zoom-in" viewBox="0 0 52.966 52.966"><g fill="#00a0ea"><path d="M28.983 20h-6v-6a1 1 0 0 0-2 0v6h-6a1 1 0 0 0 0 2h6v6a1 1 0 0 0 2 0v-6h6a1 1 0 0 0 0-2z"/><path d="M51.704 51.273L36.845 35.82c3.79-3.801 6.138-9.041 6.138-14.82 0-11.58-9.42-21-21-21s-21 9.42-21 21 9.42 21 21 21c5.083 0 9.748-1.817 13.384-4.832l14.895 15.491a.998.998 0 0 0 1.414.028 1 1 0 0 0 .028-1.414zM2.983 21c0-10.477 8.523-19 19-19s19 8.523 19 19-8.523 19-19 19-19-8.523-19-19z"/></g></symbol></svg>